<svg xmlns="http://www.w3.org/2000/svg" width="108" height="28" viewBox="0 0 108 28">
    <defs>
        <clipPath id="8huca6ndea">
            <path data-name="Rectangle 1" transform="translate(60 379.824)" style="fill:#fff;stroke:#707070" d="M0 0h108v28H0z"/>
        </clipPath>
    </defs>
    <g data-name="Group 3171" transform="translate(-60 -379.824)" style="clip-path:url(#8huca6ndea)">
        <path data-name="Path 4062" d="M-27.249.439a5.21 5.21 0 0 0 2.087 3.32 6.709 6.709 0 0 0 3.984 1.157 5.562 5.562 0 0 0 4.895-2.353l3.377 1.973a9.392 9.392 0 0 1-8.31 4.136 10.145 10.145 0 0 1-7.475-2.827 9.66 9.66 0 0 1-2.846-7.153 9.762 9.762 0 0 1 2.808-7.115 9.657 9.657 0 0 1 7.21-2.865 8.871 8.871 0 0 1 6.849 2.924A10.13 10.13 0 0 1-12-1.268a12.678 12.678 0 0 1-.147 1.707zm-.038-3.339h11.156a5.47 5.47 0 0 0-1.916-3.491 5.519 5.519 0 0 0-3.51-1.176 5.764 5.764 0 0 0-3.795 1.252A5.648 5.648 0 0 0-27.287-2.9z" transform="translate(91.537 399.151)" style="fill:#4a65ef"/>
        <path data-name="Path 4061" d="M-24.519 11.45v-27.51h4.093v27.51zm12.052-7.688a5.171 5.171 0 0 0 2.084 3.3A6.728 6.728 0 0 0-6.4 8.209a5.566 5.566 0 0 0 4.885-2.336l3.373 1.96a9.4 9.4 0 0 1-8.3 4.108 10.164 10.164 0 0 1-7.466-2.808 9.565 9.565 0 0 1-2.842-7.1 9.666 9.666 0 0 1 2.8-7.066 9.673 9.673 0 0 1 7.2-2.845A8.884 8.884 0 0 1 .1-4.981a10.028 10.028 0 0 1 2.667 7.048 12.521 12.521 0 0 1-.152 1.7zm-.038-3.316h11.142a5.425 5.425 0 0 0-1.914-3.467 5.533 5.533 0 0 0-3.506-1.168 5.778 5.778 0 0 0-3.79 1.244A5.6 5.6 0 0 0-12.505.446zm33.767-7.838h4.093V11.45h-4.093V8.737a7.682 7.682 0 0 1-6.632 3.2 8.91 8.91 0 0 1-6.67-2.883 9.772 9.772 0 0 1-2.767-7.025 9.754 9.754 0 0 1 2.766-7.047 8.938 8.938 0 0 1 6.67-2.864 7.714 7.714 0 0 1 6.632 3.166zM10.991 6.344a5.791 5.791 0 0 0 4.282 1.715 5.791 5.791 0 0 0 4.282-1.715 5.867 5.867 0 0 0 1.705-4.315 5.867 5.867 0 0 0-1.705-4.315A5.791 5.791 0 0 0 15.274-4a5.791 5.791 0 0 0-4.282 1.715 5.867 5.867 0 0 0-1.706 4.314 5.867 5.867 0 0 0 1.705 4.315zM34.223-4.227q1.554-3.5 5.836-3.5v4.409a6.093 6.093 0 0 0-4.093 1.112 4.792 4.792 0 0 0-1.743 4.164v9.5H30.13v-18.85h4.093zm18.835-3.655a7 7 0 0 1 5.268 2.072 7.832 7.832 0 0 1 2.009 5.69v11.57h-4.094V.3A4.371 4.371 0 0 0 55.1-2.946a4.213 4.213 0 0 0-3.1-1.13 4.692 4.692 0 0 0-3.49 1.338 5.6 5.6 0 0 0-1.326 4.088v10.1h-4.093V-7.392h4.093v2.412a6.464 6.464 0 0 1 5.874-2.902z" transform="translate(107.666 395.884)" style="fill:#0f0f10"/>
    </g>
</svg>
